<?xml version="1.0" encoding="UTF-8"?>
<svg xmlns="http://www.w3.org/2000/svg" xmlns:xlink="http://www.w3.org/1999/xlink" width="48pt" height="48pt" viewBox="0 0 48 48" version="1.1">
<g id="surface3312156">
<path style=" stroke:none;fill-rule:nonzero;fill:rgb(0%,0%,0%);fill-opacity:1;" d="M 41 5 L 7 5 L 10 39 L 24 43 L 38 39 Z M 41 5 "/>
<path style=" stroke:none;fill-rule:nonzero;fill:rgb(0%,0%,0%);fill-opacity:1;" d="M 24 8 L 24 39.898438 L 35.199219 36.699219 L 37.699219 8 Z M 24 8 "/>
<path style=" stroke:none;fill-rule:nonzero;fill:rgb(100%,100%,100%);fill-opacity:1;" d="M 24 25 L 24 21 L 32.601562 21 L 31.898438 32.5 L 24 35.101562 L 24 30.898438 L 28.101562 29.5 L 28.398438 25 Z M 32.898438 17 L 33.199219 13 L 24 13 L 24 17 Z M 32.898438 17 "/>
<path style=" stroke:none;fill-rule:nonzero;fill:rgb(100%,100%,100%);fill-opacity:1;" d="M 24 30.898438 L 24 35.101562 L 16.101562 32.5 L 15.699219 27 L 19.699219 27 L 19.898438 29.5 Z M 19.101562 17 L 24 17 L 24 13 L 14.898438 13 L 15.601562 25 L 24 25 L 24 21 L 19.398438 21 Z M 19.101562 17 "/>
</g>
</svg>
