<?xml version="1.0" standalone="no"?>
<!DOCTYPE svg PUBLIC "-//W3C//DTD SVG 20010904//EN"
 "http://www.w3.org/TR/2001/REC-SVG-20010904/DTD/svg10.dtd">
<svg version="1.0" xmlns="http://www.w3.org/2000/svg"
 width="512.000000pt" height="512.000000pt" viewBox="0 0 512.000000 512.000000"
 preserveAspectRatio="xMidYMid meet">

<g transform="translate(0.000000,512.000000) scale(0.100000,-0.100000)"
fill="#000000" stroke="none">
<path d="M538 4118 l-108 -62 0 -856 0 -855 99 -58 c54 -31 104 -57 111 -57 7
0 57 26 111 57 l99 58 0 612 c0 337 4 613 8 613 5 0 246 -137 535 -305 l527
-304 527 304 c289 168 530 305 535 305 4 0 7 -223 6 -496 l-3 -496 -637 -366
-637 -367 -1 -135 0 -135 741 -429 c407 -235 745 -425 752 -423 7 3 343 197
747 430 l735 425 3 599 2 598 -99 58 c-54 31 -104 57 -111 57 -7 0 -57 -26
-111 -57 l-99 -57 -2 -475 -3 -474 -536 -308 -536 -309 -414 238 c-228 131
-422 243 -432 248 -15 9 74 64 522 323 l541 313 0 862 0 862 -111 64 -112 64
-46 -25 c-25 -14 -308 -177 -628 -362 -320 -185 -587 -337 -593 -337 -6 0
-288 160 -626 356 -339 196 -623 358 -632 360 -10 3 -65 -24 -124 -58z"/>
<path d="M4375 3352 l-100 -57 0 -130 0 -130 103 -59 102 -59 103 59 102 59 0
130 0 130 -100 57 c-55 32 -102 58 -105 58 -3 0 -50 -26 -105 -58z"/>
</g>
</svg>
