<?xml version="1.0" encoding="iso-8859-1"?>
<!-- Generator: Adobe Illustrator 19.0.0, SVG Export Plug-In . SVG Version: 6.00 Build 0)  -->
<svg version="1.1" id="Capa_1" xmlns="http://www.w3.org/2000/svg" xmlns:xlink="http://www.w3.org/1999/xlink" x="0px" y="0px"
	 viewBox="0 0 464 464" style="enable-background:new 0 0 464 464;" xml:space="preserve">
<g>
	<path d="M248.08,241.147l-1.351-0.362C242.624,238.776,240,234.6,240,230v-86c0-0.456-0.047-0.9-0.12-1.335
		C249.253,139.396,256,130.474,256,120c0-10.429-6.689-19.321-16-22.624V8c0-4.418-3.582-8-8-8c-4.418,0-8,3.582-8,8v89.376
		c-9.311,3.302-16,12.195-16,22.624c0,10.474,6.747,19.396,16.12,22.665C224.047,143.1,224,143.544,224,144v24.887
		c-7.347,1.731-11.979,5.693-15.883,9.04c-4.267,3.657-7.085,6.073-13.458,6.073c-6.374,0-9.193-2.416-13.46-6.074
		c-5.159-4.422-11.58-9.926-23.873-9.926s-18.713,5.504-23.873,9.926c-4.267,3.658-7.086,6.074-13.46,6.074
		s-9.193-2.416-13.46-6.074c-5.159-4.422-11.58-9.926-23.873-9.926s-18.713,5.504-23.872,9.926C54.522,181.584,51.703,184,45.33,184
		s-9.192-2.416-13.458-6.074C26.712,173.504,20.292,168,8,168c-4.418,0-8,3.582-8,8s3.582,8,8,8c6.373,0,9.192,2.416,13.458,6.074
		C26.618,194.496,33.038,200,45.33,200c12.292,0,18.713-5.504,23.872-9.926c4.267-3.658,7.086-6.074,13.459-6.074
		c6.374,0,9.192,2.416,13.459,6.074c5.159,4.422,11.58,9.926,23.873,9.926s18.714-5.504,23.874-9.926
		c4.267-3.658,7.086-6.074,13.46-6.074c6.374,0,9.192,2.416,13.459,6.074c5.159,4.422,11.58,9.926,23.873,9.926
		c12.292,0,18.712-5.504,23.871-9.927c1.967-1.686,3.628-3.103,5.47-4.146V230c0,11.138,6.597,21.214,16.806,25.67
		c0.366,0.16,0.744,0.292,1.131,0.396l2.473,0.662c0.317,0.085,0.64,0.15,0.966,0.196c22.718,3.164,43.606,14.457,58.819,31.798
		C319.546,306.22,328,328.693,328,352c0,52.935-43.065,96-96,96s-96-43.065-96-96c0-13.307,2.745-26.345,7.994-38.379l8.913,17.08
		c1.427,2.735,4.214,4.301,7.099,4.301c1.247,0,2.512-0.293,3.694-0.909c3.917-2.045,5.435-6.877,3.391-10.794l-15.94-30.546
		c-0.015-0.028-0.032-0.053-0.047-0.08c-0.08-0.149-0.167-0.293-0.257-0.437c-0.052-0.084-0.102-0.17-0.157-0.251
		c-0.086-0.128-0.181-0.252-0.275-0.375c-0.069-0.09-0.135-0.183-0.207-0.27c-0.083-0.1-0.173-0.195-0.262-0.291
		c-0.093-0.102-0.185-0.205-0.283-0.301c-0.076-0.074-0.157-0.143-0.236-0.215c-0.12-0.109-0.241-0.218-0.367-0.319
		c-0.072-0.058-0.149-0.111-0.224-0.167c-0.14-0.104-0.28-0.207-0.426-0.301c-0.025-0.016-0.048-0.036-0.074-0.052
		c-0.061-0.039-0.125-0.069-0.187-0.106c-0.136-0.081-0.271-0.16-0.411-0.232c-0.115-0.06-0.231-0.113-0.347-0.167
		c-0.113-0.052-0.226-0.103-0.341-0.149c-0.141-0.057-0.283-0.108-0.426-0.156c-0.096-0.033-0.193-0.065-0.29-0.094
		c-0.156-0.046-0.312-0.087-0.469-0.123c-0.093-0.022-0.186-0.042-0.279-0.061c-0.156-0.03-0.313-0.055-0.47-0.076
		c-0.103-0.014-0.206-0.026-0.31-0.036c-0.145-0.013-0.289-0.023-0.434-0.028c-0.12-0.005-0.24-0.007-0.361-0.007
		c-0.129,0.001-0.258,0.005-0.386,0.012c-0.135,0.007-0.27,0.017-0.405,0.032c-0.117,0.012-0.233,0.028-0.35,0.046
		c-0.141,0.021-0.281,0.045-0.421,0.074c-0.116,0.024-0.23,0.052-0.344,0.08c-0.134,0.034-0.267,0.069-0.399,0.11
		c-0.127,0.039-0.252,0.084-0.378,0.129c-0.115,0.042-0.23,0.084-0.344,0.131c-0.144,0.06-0.285,0.127-0.425,0.195
		c-0.067,0.032-0.135,0.058-0.202,0.093c-0.029,0.015-0.054,0.033-0.083,0.049c-0.146,0.078-0.288,0.165-0.43,0.253
		c-0.086,0.053-0.174,0.104-0.257,0.16c-0.127,0.086-0.25,0.18-0.372,0.273c-0.091,0.069-0.184,0.136-0.271,0.209
		c-0.1,0.083-0.194,0.173-0.29,0.261c-0.102,0.094-0.206,0.186-0.302,0.284c-0.074,0.076-0.143,0.157-0.215,0.236
		c-0.109,0.12-0.218,0.24-0.318,0.366c-0.058,0.073-0.112,0.15-0.168,0.226c-0.104,0.139-0.205,0.279-0.299,0.424
		c-0.017,0.026-0.036,0.048-0.052,0.074C125.982,310.057,120,330.744,120,352c0,61.757,50.243,112,112,112s112-50.243,112-112
		c0-27.191-9.865-53.411-27.778-73.83C298.59,258.071,274.405,244.936,248.08,241.147z M232,112c4.411,0,8,3.589,8,8s-3.589,8-8,8
		s-8-3.589-8-8S227.589,112,232,112z"/>
	<path d="M456,168c-12.293,0-18.715,5.503-23.875,9.926c-4.268,3.657-7.088,6.074-13.464,6.074s-9.196-2.417-13.464-6.074
		c-5.16-4.423-11.582-9.926-23.875-9.926s-18.714,5.504-23.873,9.926c-4.268,3.658-7.087,6.074-13.461,6.074
		s-9.193-2.416-13.461-6.074c-5.159-4.422-11.581-9.926-23.874-9.926c-12.292,0-18.713,5.504-23.872,9.926
		c-4.268,3.658-7.087,6.074-13.461,6.074c-1.9,0-3.552-0.216-5.048-0.658c-4.239-1.262-8.688,1.161-9.942,5.397
		c-1.256,4.236,1.161,8.688,5.397,9.943c2.993,0.887,6.131,1.317,9.593,1.317c12.293,0,18.714-5.504,23.873-9.926
		c4.268-3.658,7.087-6.074,13.46-6.074c6.375,0,9.194,2.416,13.462,6.074c5.159,4.422,11.58,9.926,23.873,9.926
		s18.714-5.504,23.873-9.926c4.268-3.658,7.087-6.074,13.461-6.074c6.375,0,9.195,2.416,13.463,6.074
		c5.16,4.422,11.582,9.926,23.876,9.926s18.716-5.504,23.876-9.926C446.805,186.416,449.625,184,456,184c4.418,0,8-3.582,8-8
		S460.418,168,456,168z"/>
</g>
<g>
</g>
<g>
</g>
<g>
</g>
<g>
</g>
<g>
</g>
<g>
</g>
<g>
</g>
<g>
</g>
<g>
</g>
<g>
</g>
<g>
</g>
<g>
</g>
<g>
</g>
<g>
</g>
<g>
</g>
</svg>
