<?xml version="1.0" encoding="iso-8859-1"?>
<!-- Generator: Adobe Illustrator 19.0.0, SVG Export Plug-In . SVG Version: 6.00 Build 0)  -->
<svg version="1.1" id="Capa_1" xmlns="http://www.w3.org/2000/svg" xmlns:xlink="http://www.w3.org/1999/xlink" x="0px" y="0px"
	 viewBox="0 0 512.001 512.001" style="enable-background:new 0 0 512.001 512.001;" xml:space="preserve">
<g>
	<g>
		<path d="M68.044,443.959c-5.858-5.859-15.357-5.86-21.216-0.001L4.395,486.391c-5.859,5.858-5.859,15.357,0,21.216
			c5.858,5.859,15.357,5.859,21.216,0l42.433-42.432C73.902,459.318,73.902,449.818,68.044,443.959z"/>
	</g>
</g>
<g>
	<g>
		<path d="M152.907,443.958c-5.857-5.858-15.356-5.859-21.216,0L89.259,486.39c-5.859,5.858-5.859,15.357,0,21.216
			c5.858,5.859,15.357,5.859,21.216,0l42.433-42.432C158.766,459.317,158.766,449.817,152.907,443.958z"/>
	</g>
</g>
<g>
	<g>
		<path d="M68.044,359.094c-5.858-5.859-15.357-5.859-21.216,0L4.395,401.526c-5.859,5.858-5.859,15.357,0,21.216
			c5.858,5.859,15.357,5.859,21.216,0l42.433-42.432C73.902,374.452,73.902,364.953,68.044,359.094z"/>
	</g>
</g>
<g>
	<g>
		<path d="M498.841,140.458L371.543,13.161c-17.557-17.558-46.112-17.536-63.649,0L74.519,246.538
			c-17.488,17.487-17.664,45.985,0,63.648l127.296,127.296c17.588,17.589,46.058,17.592,63.648,0l233.378-233.377
			C516.359,186.587,516.415,158.031,498.841,140.458z M319.931,43.557l-23.863,178.274c-0.896,6.688-6.191,11.984-12.88,12.879
			l-178.273,23.863L319.931,43.557z M226.508,418.861c-1.262-0.684-2.433-1.551-3.477-2.594L96.709,289.943l146.3-19.584
			L226.508,418.861z M258.577,401.937l15.075-135.68l13.517-1.809c20.065-2.686,35.952-18.575,38.637-38.636l1.809-13.518
			l135.681-15.076L258.577,401.937z M331.717,181.651l19.584-146.3l126.324,126.323c1.053,1.053,1.91,2.229,2.583,3.477
			L331.717,181.651z"/>
	</g>
</g>
<g>
</g>
<g>
</g>
<g>
</g>
<g>
</g>
<g>
</g>
<g>
</g>
<g>
</g>
<g>
</g>
<g>
</g>
<g>
</g>
<g>
</g>
<g>
</g>
<g>
</g>
<g>
</g>
<g>
</g>
</svg>
