<?xml version="1.0" encoding="iso-8859-1"?>
<!-- Generator: Adobe Illustrator 19.0.0, SVG Export Plug-In . SVG Version: 6.00 Build 0)  -->
<svg version="1.1" id="Capa_1" xmlns="http://www.w3.org/2000/svg" xmlns:xlink="http://www.w3.org/1999/xlink" x="0px" y="0px"
	 viewBox="0 0 512 512" style="enable-background:new 0 0 512 512;" xml:space="preserve">
<g>
	<g>
		<path d="M68.192,444.02c-5.858-5.858-15.338-5.858-21.195,0L4.604,486.411c-5.858,5.858-5.858,15.338,0,21.196
			c5.858,5.857,15.338,5.858,21.196,0l42.391-42.391C74.049,459.357,74.049,449.877,68.192,444.02z"/>
	</g>
</g>
<g>
	<g>
		<path d="M152.974,444.02c-5.857-5.858-15.337-5.858-21.195,0l-42.391,42.391c-5.858,5.858-5.858,15.338,0,21.196
			c5.858,5.857,15.338,5.858,21.195,0l42.391-42.391C158.832,459.357,158.832,449.877,152.974,444.02z"/>
	</g>
</g>
<g>
	<g>
		<path d="M68.191,359.237c-5.858-5.857-15.337-5.858-21.195,0L4.604,401.628c-5.858,5.858-5.858,15.338,0,21.196
			c5.858,5.857,15.338,5.858,21.196,0l42.391-42.391C74.049,374.574,74.049,365.094,68.191,359.237z"/>
	</g>
</g>
<g>
	<g>
		<path d="M500.028,137.816L372.854,10.642c-4.652-4.652-10.101-7.982-15.89-10.165L333.07,178.959l178.72-19.853
			C509.924,151.311,506.101,143.889,500.028,137.816z"/>
	</g>
</g>
<g>
	<g>
		<path d="M309.266,10.642L76.113,243.795c-5.077,5.077-8.505,11.115-10.642,17.501l219.111-29.331
			c6.686-0.889,11.965-6.168,12.855-12.853L326.773,0C320.386,2.136,314.344,5.564,309.266,10.642z"/>
	</g>
</g>
<g>
	<g>
		<path d="M328.968,209.588l-1.807,13.497c-2.68,19.956-18.484,35.901-38.603,38.603l-13.496,1.806L255.145,442.77
			c4.208-2.103,8.226-4.71,11.731-8.215l233.153-233.153c3.503-3.503,6.109-7.522,8.212-11.728L328.968,209.588z"/>
	</g>
</g>
<g>
	<g>
		<path d="M65.948,291.488c2.184,5.79,5.512,11.241,10.166,15.894l127.174,127.174c6.071,6.071,13.492,9.896,21.287,11.761
			l19.857-178.722L65.948,291.488z"/>
	</g>
</g>
<g>
</g>
<g>
</g>
<g>
</g>
<g>
</g>
<g>
</g>
<g>
</g>
<g>
</g>
<g>
</g>
<g>
</g>
<g>
</g>
<g>
</g>
<g>
</g>
<g>
</g>
<g>
</g>
<g>
</g>
</svg>
